<svg width="180" height="24" viewBox="0 0 180 24" fill="none" xmlns="http://www.w3.org/2000/svg">
<path d="M180 2.7C179.937 3.16875 179.877 3.63375 179.813 4.10625C179.772 4.11 179.73 4.12875 179.7 4.1175C178.677 3.735 177.608 3.66375 176.528 3.66375C173.817 3.66375 171.105 3.6675 168.39 3.65625C168.049 3.65625 167.922 3.7575 167.843 4.0875C167.363 6.07875 166.86 8.0625 166.365 10.0463C166.332 10.1775 166.305 10.3088 166.264 10.485C166.414 10.4963 166.534 10.5113 166.65 10.5113C169.148 10.5113 171.649 10.545 174.147 10.4813C175.11 10.4588 176.067 10.215 177.027 10.0725C177.098 10.0613 177.165 10.0463 177.289 10.02C176.963 11.325 176.648 12.5925 176.322 13.8863C174.784 13.2863 173.202 13.3763 171.634 13.3725C169.733 13.365 167.835 13.3763 165.934 13.3613C165.627 13.3613 165.503 13.4513 165.432 13.7513C164.918 15.8738 164.382 17.9925 163.857 20.1113C163.834 20.1938 163.823 20.28 163.8 20.3963C163.909 20.4113 164.003 20.4338 164.097 20.4338C167.119 20.4263 170.145 20.4413 173.168 20.3925C174.057 20.3775 174.942 20.1713 175.834 20.0513C175.834 20.0588 175.819 20.1375 175.789 20.2088C175.403 21.1425 175.017 22.0763 174.634 23.0138C174.559 23.1975 174.484 23.3175 174.24 23.3175C168.24 23.31 162.244 23.31 156.244 23.31C156.207 23.31 156.169 23.3025 156.135 23.295C156.128 23.2688 156.105 23.2388 156.113 23.2238C156.964 21.6825 157.29 19.9688 157.714 18.2888C158.67 14.4863 159.615 10.6838 160.553 6.8775C160.917 5.4 161.273 3.91875 161.584 2.43C161.693 1.9125 161.667 1.365 161.704 0.776254H162.162C167.948 0.776254 173.734 0.776254 179.52 0.776254C179.682 0.776254 179.843 0.761254 180.004 0.753754V2.70375L180 2.7Z" fill="white"/>
<path d="M131.003 23.2838C131.164 22.95 131.359 22.65 131.46 22.3238C131.854 21.0375 132.259 19.7513 132.593 18.4463C133.467 15.0375 134.307 11.6175 135.158 8.20125C135.57 6.54375 136.002 4.88625 136.369 3.2175C136.538 2.445 136.575 1.63875 136.684 0.791252C136.74 0.791252 136.872 0.776252 137.003 0.776252C142.8 0.776252 148.602 0.772502 154.399 0.780002C154.857 0.780002 155.325 0.832502 155.775 0.926252C157.35 1.26 158.157 2.32875 157.984 3.9375C157.898 4.74 157.692 5.53125 157.508 6.31875C157.23 7.49625 156.927 8.67 156.634 9.84375C156.12 11.9138 154.752 13.0463 152.7 13.3988C152.295 13.47 152.243 13.6013 152.303 13.9763C152.652 16.2713 152.974 18.5738 153.308 20.8725C153.432 21.735 153.717 22.5413 154.294 23.28H146.809C146.682 22.3838 146.554 21.4838 146.43 20.5838C146.108 18.2963 145.782 16.0088 145.47 13.7213C145.437 13.4625 145.354 13.3575 145.077 13.3613C143.652 13.3725 142.227 13.3725 140.802 13.3613C140.558 13.3613 140.453 13.4363 140.393 13.6763C139.808 16.0763 139.185 18.4688 138.627 20.8763C138.447 21.6488 138.42 22.455 138.315 23.2763H131.01L131.003 23.2838ZM141.192 10.485C141.319 10.4963 141.379 10.5075 141.439 10.5075C143.925 10.5075 146.412 10.515 148.898 10.5075C149.663 10.5075 150.09 10.2075 150.308 9.40875C150.732 7.85625 151.118 6.2925 151.474 4.72125C151.643 3.99 151.335 3.66375 150.578 3.66C148.129 3.65625 145.68 3.66 143.232 3.6525C142.943 3.6525 142.849 3.76125 142.785 4.01625C142.478 5.29125 142.152 6.55875 141.837 7.83375C141.619 8.70375 141.409 9.57375 141.184 10.485H141.192Z" fill="white"/>
<path d="M116.891 23.31C114.641 23.31 112.391 23.3213 110.145 23.3025C109.661 23.2988 109.166 23.2463 108.701 23.13C107.167 22.7363 106.402 21.5363 106.71 19.8563C106.998 18.2888 107.403 16.74 107.786 15.1875C108.6 11.88 109.425 8.5725 110.257 5.26875C110.628 3.8025 111.292 2.50875 112.601 1.64625C113.587 0.997503 114.697 0.783753 115.848 0.780003C120.296 0.768753 124.743 0.765003 129.195 0.787503C129.81 0.787503 130.443 0.892503 131.032 1.0725C132.123 1.41 132.678 2.22 132.753 3.36375C132.828 4.43625 132.517 5.44125 132.266 6.4575C131.253 10.5525 130.23 14.6438 129.206 18.7388C128.936 19.815 128.512 20.8237 127.755 21.66C126.671 22.8525 125.268 23.2875 123.712 23.3025C121.44 23.3213 119.163 23.3063 116.891 23.3063V23.31ZM117.637 20.4225C117.637 20.4225 117.637 20.4338 117.637 20.4375C118.698 20.4375 119.763 20.4488 120.825 20.4375C121.886 20.4225 122.235 20.145 122.486 19.1362C123.667 14.4262 124.841 9.7125 126.018 5.0025C126.273 3.975 126.03 3.6675 124.972 3.6675C122.872 3.6675 120.772 3.6675 118.672 3.6675C117.555 3.6675 117.18 3.96 116.91 5.04375C116.088 8.34 115.263 11.6325 114.442 14.9288C114.078 16.395 113.707 17.8575 113.362 19.3312C113.182 20.0925 113.415 20.4075 114.187 20.4263C115.335 20.4525 116.486 20.4338 117.637 20.4338V20.4225Z" fill="white"/>
<path d="M78.0791 0.795011C78.2329 0.787511 78.3566 0.776261 78.4766 0.776261C81.1654 0.776261 83.8504 0.776261 86.5391 0.768761C86.8354 0.768761 86.9404 0.851261 86.9854 1.15126C87.4991 4.77375 88.0279 8.39625 88.5491 12.015C88.7891 13.6838 89.0216 15.3525 89.2729 17.1262C89.4004 16.9575 89.4829 16.8637 89.5504 16.7587C92.9254 11.5612 96.3041 6.3675 99.6679 1.16251C99.8629 0.858761 100.065 0.761261 100.418 0.761261C102.893 0.776261 105.368 0.768761 107.843 0.768761H108.24C108.255 0.825011 108.27 0.855011 108.263 0.870011C107.389 2.39251 107.082 4.09875 106.665 5.7675C105.439 10.6612 104.209 15.5513 103.02 20.4525C102.818 21.2925 102.795 22.1775 102.69 23.0438C102.683 23.115 102.675 23.19 102.668 23.2838H95.5729C95.5729 23.2538 95.5504 23.2125 95.5654 23.1863C96.3341 21.8175 96.6566 20.295 97.0316 18.795C97.9804 14.9925 98.9291 11.1863 99.8741 7.38375C100.129 6.3675 100.38 5.3475 100.632 4.33125C100.65 4.26 100.654 4.18875 100.598 4.08C100.497 4.22625 100.395 4.3725 100.298 4.5225C96.3266 10.6425 92.3554 16.7625 88.3954 22.89C88.1854 23.2163 87.9641 23.325 87.5854 23.3175C86.3479 23.295 85.1104 23.3025 83.8729 23.3175C83.5991 23.3175 83.5166 23.2275 83.4791 22.965C83.0479 19.8863 82.5979 16.8075 82.1591 13.7288C81.7504 10.86 81.3454 7.99125 80.9366 5.1225C80.8879 4.7775 80.8316 4.4325 80.7191 4.08C80.6854 4.1625 80.6366 4.24125 80.6179 4.3275C79.2529 9.8025 77.8804 15.2775 76.5416 20.76C76.3466 21.5663 76.3091 22.41 76.1929 23.28H72.5404C72.5404 23.28 72.5216 23.235 72.5291 23.22C73.3954 21.6562 73.7179 19.9163 74.1454 18.21C75.3716 13.305 76.6016 8.4 77.7979 3.48751C77.9816 2.73001 77.9966 1.93126 78.0866 1.15501C78.0979 1.04626 78.0866 0.937511 78.0866 0.802511L78.0791 0.795011Z" fill="white"/>
<path d="M63.5703 0.776268C65.8203 0.776268 68.0703 0.761268 70.3166 0.783768C70.9128 0.791268 71.5166 0.851268 72.0941 0.986268C73.3691 1.28252 74.0516 2.18627 74.1003 3.49127C74.1416 4.575 73.8153 5.5875 73.5603 6.615C72.5403 10.7212 71.5203 14.8275 70.4853 18.93C70.1516 20.2537 69.5441 21.4313 68.4228 22.275C67.4478 23.01 66.3153 23.2987 65.1153 23.3025C60.5291 23.3175 55.9428 23.3175 51.3566 23.295C50.8278 23.295 50.2841 23.19 49.7778 23.0363C48.6716 22.7025 47.9928 21.8512 48.0266 20.6962C48.0528 19.8075 48.1991 18.9075 48.4091 18.0413C49.4516 13.7588 50.5203 9.4875 51.6116 5.22C51.7841 4.5525 52.0541 3.885 52.3953 3.28502C53.2616 1.75877 54.6416 0.911268 56.3703 0.847518C58.7666 0.761268 61.1666 0.825018 63.5628 0.825018C63.5628 0.806268 63.5628 0.787518 63.5628 0.768768L63.5703 0.776268ZM58.9766 20.4263C58.9766 20.4263 58.9766 20.4262 58.9766 20.4225C60.1391 20.4225 61.3016 20.4225 62.4641 20.4225C63.1316 20.4225 63.5328 20.07 63.7391 19.4625C63.7991 19.2863 63.8478 19.1025 63.8928 18.9225C64.9091 14.8537 65.9253 10.7812 66.9341 6.7125C67.1216 5.9625 67.3053 5.20875 67.4253 4.4475C67.5003 3.97125 67.2866 3.765 66.8028 3.69002C66.6416 3.66377 66.4803 3.66377 66.3153 3.66377C65.2391 3.66377 64.1666 3.66377 63.0903 3.66377C61.9916 3.66377 60.8891 3.65627 59.7903 3.66377C58.9691 3.67127 58.5828 3.9675 58.3316 4.7475C58.2903 4.87875 58.2528 5.01 58.2191 5.145C57.4391 8.26875 56.6628 11.3963 55.8828 14.52C55.4891 16.1063 55.0841 17.6925 54.7016 19.2825C54.5103 20.085 54.7391 20.4 55.5566 20.4188C56.6928 20.445 57.8291 20.4263 58.9691 20.4263H58.9766Z" fill="white"/>
<path d="M25.7246 23.295C25.9834 22.6763 26.2909 22.11 26.4596 21.5063C26.9659 19.6913 27.4309 17.865 27.8921 16.035C28.8146 12.3675 29.7371 8.69625 30.6259 5.02125C30.9071 3.85875 31.0796 2.67376 31.2859 1.49626C31.3234 1.27876 31.2896 1.05001 31.2896 0.802505H49.7283C49.6383 1.90876 49.5483 3.00751 49.4583 4.12125C48.9671 4.00875 48.5133 3.87375 48.0521 3.80625C47.4971 3.72751 46.9346 3.67126 46.3758 3.66751C43.5746 3.65251 40.7771 3.66751 37.9758 3.65251C37.6646 3.65251 37.5521 3.75 37.4771 4.04625C36.9821 6.0975 36.4646 8.14125 35.9546 10.1888C35.9359 10.2713 35.9284 10.3575 35.9096 10.4775C36.0334 10.4888 36.1421 10.5075 36.2471 10.5075C38.7333 10.5075 41.2233 10.5075 43.7096 10.4963C44.7108 10.4925 45.7046 10.3838 46.6646 10.0688C46.7208 10.05 46.7808 10.0463 46.9046 10.0275C46.5821 11.3325 46.2671 12.5963 45.9483 13.8863C44.3846 13.2788 42.7758 13.3763 41.1821 13.3688C39.3071 13.3613 37.4321 13.3725 35.5571 13.3575C35.2459 13.3575 35.1296 13.4475 35.0546 13.7513C34.5409 15.8738 34.0084 17.9925 33.4834 20.115C33.4646 20.1975 33.4571 20.2838 33.4384 20.3963C33.5509 20.4113 33.6446 20.43 33.7421 20.43C36.7684 20.4225 39.7908 20.4375 42.8171 20.3888C43.6946 20.3738 44.5683 20.1675 45.4496 20.0475C45.4496 20.0475 45.4496 20.13 45.4196 20.2013C45.0333 21.135 44.6396 22.0688 44.2608 23.0063C44.1746 23.22 44.0733 23.3138 43.8258 23.3138C37.8521 23.3063 31.8746 23.3063 25.9009 23.3063C25.8521 23.3063 25.8034 23.2988 25.7284 23.295H25.7246Z" fill="white"/>
<path d="M28.7622 0.802515C28.6459 1.02751 28.5147 1.21501 28.4509 1.42126C28.0572 2.64376 27.6184 3.855 27.3034 5.09625C25.7997 11.025 24.3334 16.965 22.8597 22.905C22.7847 23.205 22.6797 23.325 22.3422 23.3213C20.0659 23.3025 17.7934 23.3063 15.5172 23.3213C15.2247 23.3213 15.0859 23.25 14.9772 22.9613C12.7684 17.175 10.5447 11.3963 8.32466 5.61375C8.26091 5.445 8.18966 5.28 8.03216 5.12625C7.83341 5.9175 7.62716 6.7125 7.43216 7.50375C6.35966 11.805 5.27591 16.1025 4.22966 20.4075C4.00466 21.3338 3.92966 22.2975 3.77966 23.2838H0.138423C0.138423 23.2838 0.115923 23.235 0.127173 23.22C1.01967 21.6375 1.33092 19.8675 1.76592 18.1388C2.94342 13.4663 4.09841 8.78625 5.26466 4.11C5.53466 3.03001 5.75966 1.94626 5.68091 0.772515C5.85716 0.772515 5.99216 0.772515 6.12341 0.772515C8.59841 0.772515 11.0734 0.776265 13.5484 0.765015C13.8297 0.765015 13.9647 0.840015 14.0697 1.11001C16.2484 6.79875 18.4347 12.4875 20.6247 18.1725C20.6809 18.3225 20.7447 18.4725 20.8459 18.72C20.9134 18.5288 20.9584 18.4275 20.9847 18.3188C22.2334 13.305 23.4934 8.29125 24.7159 3.27001C24.9072 2.47876 24.9334 1.64626 25.0422 0.798765H28.7659L28.7622 0.802515Z" fill="white"/>
</svg>
